<mxfile host="app.diagrams.net" modified="2020-10-25T03:50:33.074Z" agent="5.0 (Macintosh; Intel Mac OS X 10_15_7) AppleWebKit/537.36 (KHTML, like Gecko) Chrome/86.0.4240.80 Safari/537.36" etag="uEriFiRn4O7heSxMpMSV" version="13.8.1" type="github">
  <diagram id="R2lEEEUBdFMjLlhIrx00" name="Page-1">
    <mxGraphModel dx="226" dy="591" grid="1" gridSize="10" guides="1" tooltips="1" connect="1" arrows="1" fold="1" page="1" pageScale="1" pageWidth="850" pageHeight="1100" math="0" shadow="0" extFonts="Permanent Marker^https://fonts.googleapis.com/css?family=Permanent+Marker">
      <root>
        <mxCell id="0" />
        <mxCell id="1" parent="0" />
        <mxCell id="371_Ylf-zgcREsuYLQL4-16" value="customers" style="shape=table;startSize=30;container=1;collapsible=1;childLayout=tableLayout;fixedRows=1;rowLines=0;fontStyle=1;align=center;resizeLast=1;fillColor=#FFFFFF;" vertex="1" parent="1">
          <mxGeometry x="80" y="320" width="240" height="120" as="geometry">
            <mxRectangle x="80" y="320" width="90" height="30" as="alternateBounds" />
          </mxGeometry>
        </mxCell>
        <mxCell id="371_Ylf-zgcREsuYLQL4-17" value="" style="shape=partialRectangle;collapsible=0;dropTarget=0;pointerEvents=0;fillColor=none;top=0;left=0;bottom=1;right=0;points=[[0,0.5],[1,0.5]];portConstraint=eastwest;" vertex="1" parent="371_Ylf-zgcREsuYLQL4-16">
          <mxGeometry y="30" width="240" height="30" as="geometry" />
        </mxCell>
        <mxCell id="371_Ylf-zgcREsuYLQL4-18" value="" style="shape=partialRectangle;connectable=0;fillColor=none;top=0;left=0;bottom=0;right=0;fontStyle=1;overflow=hidden;" vertex="1" parent="371_Ylf-zgcREsuYLQL4-17">
          <mxGeometry width="30" height="30" as="geometry" />
        </mxCell>
        <mxCell id="371_Ylf-zgcREsuYLQL4-19" value="" style="shape=partialRectangle;connectable=0;fillColor=none;top=0;left=0;bottom=0;right=0;align=left;spacingLeft=6;fontStyle=5;overflow=hidden;" vertex="1" parent="371_Ylf-zgcREsuYLQL4-17">
          <mxGeometry x="30" width="210" height="30" as="geometry" />
        </mxCell>
        <mxCell id="371_Ylf-zgcREsuYLQL4-20" value="" style="shape=partialRectangle;collapsible=0;dropTarget=0;pointerEvents=0;fillColor=none;top=0;left=0;bottom=0;right=0;points=[[0,0.5],[1,0.5]];portConstraint=eastwest;" vertex="1" parent="371_Ylf-zgcREsuYLQL4-16">
          <mxGeometry y="60" width="240" height="30" as="geometry" />
        </mxCell>
        <mxCell id="371_Ylf-zgcREsuYLQL4-21" value="" style="shape=partialRectangle;connectable=0;fillColor=none;top=0;left=0;bottom=0;right=0;editable=1;overflow=hidden;" vertex="1" parent="371_Ylf-zgcREsuYLQL4-20">
          <mxGeometry width="30" height="30" as="geometry" />
        </mxCell>
        <mxCell id="371_Ylf-zgcREsuYLQL4-22" value="custormer_name" style="shape=partialRectangle;connectable=0;fillColor=none;top=0;left=0;bottom=0;right=0;align=left;spacingLeft=6;overflow=hidden;" vertex="1" parent="371_Ylf-zgcREsuYLQL4-20">
          <mxGeometry x="30" width="210" height="30" as="geometry" />
        </mxCell>
        <mxCell id="371_Ylf-zgcREsuYLQL4-23" value="" style="shape=partialRectangle;collapsible=0;dropTarget=0;pointerEvents=0;fillColor=none;top=0;left=0;bottom=0;right=0;points=[[0,0.5],[1,0.5]];portConstraint=eastwest;" vertex="1" parent="371_Ylf-zgcREsuYLQL4-16">
          <mxGeometry y="90" width="240" height="30" as="geometry" />
        </mxCell>
        <mxCell id="371_Ylf-zgcREsuYLQL4-24" value="" style="shape=partialRectangle;connectable=0;fillColor=none;top=0;left=0;bottom=0;right=0;editable=1;overflow=hidden;" vertex="1" parent="371_Ylf-zgcREsuYLQL4-23">
          <mxGeometry width="30" height="30" as="geometry" />
        </mxCell>
        <mxCell id="371_Ylf-zgcREsuYLQL4-25" value="cell_number" style="shape=partialRectangle;connectable=0;fillColor=none;top=0;left=0;bottom=0;right=0;align=left;spacingLeft=6;overflow=hidden;" vertex="1" parent="371_Ylf-zgcREsuYLQL4-23">
          <mxGeometry x="30" width="210" height="30" as="geometry" />
        </mxCell>
        <mxCell id="371_Ylf-zgcREsuYLQL4-29" value="foods" style="shape=table;startSize=30;container=1;collapsible=1;childLayout=tableLayout;fixedRows=1;rowLines=0;fontStyle=1;align=center;resizeLast=1;" vertex="1" parent="1">
          <mxGeometry x="360" y="320" width="240" height="180" as="geometry" />
        </mxCell>
        <mxCell id="371_Ylf-zgcREsuYLQL4-30" value="" style="shape=partialRectangle;collapsible=0;dropTarget=0;pointerEvents=0;fillColor=none;top=0;left=0;bottom=1;right=0;points=[[0,0.5],[1,0.5]];portConstraint=eastwest;" vertex="1" parent="371_Ylf-zgcREsuYLQL4-29">
          <mxGeometry y="30" width="240" height="30" as="geometry" />
        </mxCell>
        <mxCell id="371_Ylf-zgcREsuYLQL4-31" value="" style="shape=partialRectangle;connectable=0;fillColor=none;top=0;left=0;bottom=0;right=0;fontStyle=1;overflow=hidden;" vertex="1" parent="371_Ylf-zgcREsuYLQL4-30">
          <mxGeometry width="30" height="30" as="geometry" />
        </mxCell>
        <mxCell id="371_Ylf-zgcREsuYLQL4-32" value="" style="shape=partialRectangle;connectable=0;fillColor=none;top=0;left=0;bottom=0;right=0;align=left;spacingLeft=6;fontStyle=5;overflow=hidden;" vertex="1" parent="371_Ylf-zgcREsuYLQL4-30">
          <mxGeometry x="30" width="210" height="30" as="geometry" />
        </mxCell>
        <mxCell id="371_Ylf-zgcREsuYLQL4-33" value="" style="shape=partialRectangle;collapsible=0;dropTarget=0;pointerEvents=0;fillColor=none;top=0;left=0;bottom=0;right=0;points=[[0,0.5],[1,0.5]];portConstraint=eastwest;" vertex="1" parent="371_Ylf-zgcREsuYLQL4-29">
          <mxGeometry y="60" width="240" height="30" as="geometry" />
        </mxCell>
        <mxCell id="371_Ylf-zgcREsuYLQL4-34" value="" style="shape=partialRectangle;connectable=0;fillColor=none;top=0;left=0;bottom=0;right=0;editable=1;overflow=hidden;" vertex="1" parent="371_Ylf-zgcREsuYLQL4-33">
          <mxGeometry width="30" height="30" as="geometry" />
        </mxCell>
        <mxCell id="371_Ylf-zgcREsuYLQL4-35" value="foods" style="shape=partialRectangle;connectable=0;fillColor=none;top=0;left=0;bottom=0;right=0;align=left;spacingLeft=6;overflow=hidden;" vertex="1" parent="371_Ylf-zgcREsuYLQL4-33">
          <mxGeometry x="30" width="210" height="30" as="geometry" />
        </mxCell>
        <mxCell id="371_Ylf-zgcREsuYLQL4-36" value="" style="shape=partialRectangle;collapsible=0;dropTarget=0;pointerEvents=0;fillColor=none;top=0;left=0;bottom=0;right=0;points=[[0,0.5],[1,0.5]];portConstraint=eastwest;" vertex="1" parent="371_Ylf-zgcREsuYLQL4-29">
          <mxGeometry y="90" width="240" height="30" as="geometry" />
        </mxCell>
        <mxCell id="371_Ylf-zgcREsuYLQL4-37" value="" style="shape=partialRectangle;connectable=0;fillColor=none;top=0;left=0;bottom=0;right=0;editable=1;overflow=hidden;" vertex="1" parent="371_Ylf-zgcREsuYLQL4-36">
          <mxGeometry width="30" height="30" as="geometry" />
        </mxCell>
        <mxCell id="371_Ylf-zgcREsuYLQL4-38" value="price" style="shape=partialRectangle;connectable=0;fillColor=none;top=0;left=0;bottom=0;right=0;align=left;spacingLeft=6;overflow=hidden;" vertex="1" parent="371_Ylf-zgcREsuYLQL4-36">
          <mxGeometry x="30" width="210" height="30" as="geometry" />
        </mxCell>
        <mxCell id="371_Ylf-zgcREsuYLQL4-39" value="" style="shape=partialRectangle;collapsible=0;dropTarget=0;pointerEvents=0;fillColor=none;top=0;left=0;bottom=0;right=0;points=[[0,0.5],[1,0.5]];portConstraint=eastwest;" vertex="1" parent="371_Ylf-zgcREsuYLQL4-29">
          <mxGeometry y="120" width="240" height="30" as="geometry" />
        </mxCell>
        <mxCell id="371_Ylf-zgcREsuYLQL4-40" value="" style="shape=partialRectangle;connectable=0;fillColor=none;top=0;left=0;bottom=0;right=0;editable=1;overflow=hidden;" vertex="1" parent="371_Ylf-zgcREsuYLQL4-39">
          <mxGeometry width="30" height="30" as="geometry" />
        </mxCell>
        <mxCell id="371_Ylf-zgcREsuYLQL4-41" value="tax_price" style="shape=partialRectangle;connectable=0;fillColor=none;top=0;left=0;bottom=0;right=0;align=left;spacingLeft=6;overflow=hidden;verticalAlign=middle;" vertex="1" parent="371_Ylf-zgcREsuYLQL4-39">
          <mxGeometry x="30" width="210" height="30" as="geometry" />
        </mxCell>
        <mxCell id="371_Ylf-zgcREsuYLQL4-61" style="shape=partialRectangle;collapsible=0;dropTarget=0;pointerEvents=0;fillColor=none;top=0;left=0;bottom=0;right=0;points=[[0,0.5],[1,0.5]];portConstraint=eastwest;" vertex="1" parent="371_Ylf-zgcREsuYLQL4-29">
          <mxGeometry y="150" width="240" height="30" as="geometry" />
        </mxCell>
        <mxCell id="371_Ylf-zgcREsuYLQL4-62" style="shape=partialRectangle;connectable=0;fillColor=none;top=0;left=0;bottom=0;right=0;editable=1;overflow=hidden;" vertex="1" parent="371_Ylf-zgcREsuYLQL4-61">
          <mxGeometry width="30" height="30" as="geometry" />
        </mxCell>
        <mxCell id="371_Ylf-zgcREsuYLQL4-63" value="food_class" style="shape=partialRectangle;connectable=0;fillColor=none;top=0;left=0;bottom=0;right=0;align=left;spacingLeft=6;overflow=hidden;verticalAlign=middle;" vertex="1" parent="371_Ylf-zgcREsuYLQL4-61">
          <mxGeometry x="30" width="210" height="30" as="geometry" />
        </mxCell>
        <mxCell id="371_Ylf-zgcREsuYLQL4-2" value="orders" style="shape=table;startSize=30;container=1;collapsible=1;childLayout=tableLayout;fixedRows=1;rowLines=0;fontStyle=1;align=center;resizeLast=1;" vertex="1" parent="1">
          <mxGeometry x="80" y="110" width="240" height="150" as="geometry" />
        </mxCell>
        <mxCell id="371_Ylf-zgcREsuYLQL4-3" value="" style="shape=partialRectangle;collapsible=0;dropTarget=0;pointerEvents=0;fillColor=none;top=0;left=0;bottom=1;right=0;points=[[0,0.5],[1,0.5]];portConstraint=eastwest;" vertex="1" parent="371_Ylf-zgcREsuYLQL4-2">
          <mxGeometry y="30" width="240" height="30" as="geometry" />
        </mxCell>
        <mxCell id="371_Ylf-zgcREsuYLQL4-4" value="" style="shape=partialRectangle;connectable=0;fillColor=none;top=0;left=0;bottom=0;right=0;fontStyle=1;overflow=hidden;" vertex="1" parent="371_Ylf-zgcREsuYLQL4-3">
          <mxGeometry width="30" height="30" as="geometry" />
        </mxCell>
        <mxCell id="371_Ylf-zgcREsuYLQL4-5" value="" style="shape=partialRectangle;connectable=0;fillColor=none;top=0;left=0;bottom=0;right=0;align=left;spacingLeft=6;fontStyle=5;overflow=hidden;" vertex="1" parent="371_Ylf-zgcREsuYLQL4-3">
          <mxGeometry x="30" width="210" height="30" as="geometry" />
        </mxCell>
        <mxCell id="371_Ylf-zgcREsuYLQL4-6" value="" style="shape=partialRectangle;collapsible=0;dropTarget=0;pointerEvents=0;fillColor=none;top=0;left=0;bottom=0;right=0;points=[[0,0.5],[1,0.5]];portConstraint=eastwest;" vertex="1" parent="371_Ylf-zgcREsuYLQL4-2">
          <mxGeometry y="60" width="240" height="30" as="geometry" />
        </mxCell>
        <mxCell id="371_Ylf-zgcREsuYLQL4-7" value="" style="shape=partialRectangle;connectable=0;fillColor=none;top=0;left=0;bottom=0;right=0;editable=1;overflow=hidden;" vertex="1" parent="371_Ylf-zgcREsuYLQL4-6">
          <mxGeometry width="30" height="30" as="geometry" />
        </mxCell>
        <mxCell id="371_Ylf-zgcREsuYLQL4-8" value="number_of_orders" style="shape=partialRectangle;connectable=0;fillColor=none;top=0;left=0;bottom=0;right=0;align=left;spacingLeft=6;overflow=hidden;" vertex="1" parent="371_Ylf-zgcREsuYLQL4-6">
          <mxGeometry x="30" width="210" height="30" as="geometry" />
        </mxCell>
        <mxCell id="371_Ylf-zgcREsuYLQL4-9" value="" style="shape=partialRectangle;collapsible=0;dropTarget=0;pointerEvents=0;fillColor=none;top=0;left=0;bottom=0;right=0;points=[[0,0.5],[1,0.5]];portConstraint=eastwest;" vertex="1" parent="371_Ylf-zgcREsuYLQL4-2">
          <mxGeometry y="90" width="240" height="30" as="geometry" />
        </mxCell>
        <mxCell id="371_Ylf-zgcREsuYLQL4-10" value="" style="shape=partialRectangle;connectable=0;fillColor=none;top=0;left=0;bottom=0;right=0;editable=1;overflow=hidden;" vertex="1" parent="371_Ylf-zgcREsuYLQL4-9">
          <mxGeometry width="30" height="30" as="geometry" />
        </mxCell>
        <mxCell id="371_Ylf-zgcREsuYLQL4-11" value="" style="shape=partialRectangle;connectable=0;fillColor=none;top=0;left=0;bottom=0;right=0;align=left;spacingLeft=6;overflow=hidden;" vertex="1" parent="371_Ylf-zgcREsuYLQL4-9">
          <mxGeometry x="30" width="210" height="30" as="geometry" />
        </mxCell>
        <mxCell id="371_Ylf-zgcREsuYLQL4-12" value="" style="shape=partialRectangle;collapsible=0;dropTarget=0;pointerEvents=0;fillColor=none;top=0;left=0;bottom=0;right=0;points=[[0,0.5],[1,0.5]];portConstraint=eastwest;" vertex="1" parent="371_Ylf-zgcREsuYLQL4-2">
          <mxGeometry y="120" width="240" height="30" as="geometry" />
        </mxCell>
        <mxCell id="371_Ylf-zgcREsuYLQL4-13" value="" style="shape=partialRectangle;connectable=0;fillColor=none;top=0;left=0;bottom=0;right=0;editable=1;overflow=hidden;" vertex="1" parent="371_Ylf-zgcREsuYLQL4-12">
          <mxGeometry width="30" height="30" as="geometry" />
        </mxCell>
        <mxCell id="371_Ylf-zgcREsuYLQL4-14" value="" style="shape=partialRectangle;connectable=0;fillColor=none;top=0;left=0;bottom=0;right=0;align=left;spacingLeft=6;overflow=hidden;" vertex="1" parent="371_Ylf-zgcREsuYLQL4-12">
          <mxGeometry x="30" width="210" height="30" as="geometry" />
        </mxCell>
        <mxCell id="371_Ylf-zgcREsuYLQL4-64" value="food_categores" style="shape=table;startSize=30;container=1;collapsible=1;childLayout=tableLayout;fixedRows=1;rowLines=0;fontStyle=1;align=center;resizeLast=1;fillColor=#FFFFFF;" vertex="1" parent="1">
          <mxGeometry x="360" y="530" width="240" height="150" as="geometry" />
        </mxCell>
        <mxCell id="371_Ylf-zgcREsuYLQL4-65" value="" style="shape=partialRectangle;collapsible=0;dropTarget=0;pointerEvents=0;fillColor=none;top=0;left=0;bottom=1;right=0;points=[[0,0.5],[1,0.5]];portConstraint=eastwest;" vertex="1" parent="371_Ylf-zgcREsuYLQL4-64">
          <mxGeometry y="30" width="240" height="30" as="geometry" />
        </mxCell>
        <mxCell id="371_Ylf-zgcREsuYLQL4-66" value="" style="shape=partialRectangle;connectable=0;fillColor=none;top=0;left=0;bottom=0;right=0;fontStyle=1;overflow=hidden;" vertex="1" parent="371_Ylf-zgcREsuYLQL4-65">
          <mxGeometry width="30" height="30" as="geometry" />
        </mxCell>
        <mxCell id="371_Ylf-zgcREsuYLQL4-67" value="" style="shape=partialRectangle;connectable=0;fillColor=none;top=0;left=0;bottom=0;right=0;align=left;spacingLeft=6;fontStyle=5;overflow=hidden;" vertex="1" parent="371_Ylf-zgcREsuYLQL4-65">
          <mxGeometry x="30" width="210" height="30" as="geometry" />
        </mxCell>
        <mxCell id="371_Ylf-zgcREsuYLQL4-68" value="" style="shape=partialRectangle;collapsible=0;dropTarget=0;pointerEvents=0;fillColor=none;top=0;left=0;bottom=0;right=0;points=[[0,0.5],[1,0.5]];portConstraint=eastwest;" vertex="1" parent="371_Ylf-zgcREsuYLQL4-64">
          <mxGeometry y="60" width="240" height="30" as="geometry" />
        </mxCell>
        <mxCell id="371_Ylf-zgcREsuYLQL4-69" value="" style="shape=partialRectangle;connectable=0;fillColor=none;top=0;left=0;bottom=0;right=0;editable=1;overflow=hidden;" vertex="1" parent="371_Ylf-zgcREsuYLQL4-68">
          <mxGeometry width="30" height="30" as="geometry" />
        </mxCell>
        <mxCell id="371_Ylf-zgcREsuYLQL4-70" value="food_category" style="shape=partialRectangle;connectable=0;fillColor=none;top=0;left=0;bottom=0;right=0;align=left;spacingLeft=6;overflow=hidden;" vertex="1" parent="371_Ylf-zgcREsuYLQL4-68">
          <mxGeometry x="30" width="210" height="30" as="geometry" />
        </mxCell>
        <mxCell id="371_Ylf-zgcREsuYLQL4-71" value="" style="shape=partialRectangle;collapsible=0;dropTarget=0;pointerEvents=0;fillColor=none;top=0;left=0;bottom=0;right=0;points=[[0,0.5],[1,0.5]];portConstraint=eastwest;" vertex="1" parent="371_Ylf-zgcREsuYLQL4-64">
          <mxGeometry y="90" width="240" height="30" as="geometry" />
        </mxCell>
        <mxCell id="371_Ylf-zgcREsuYLQL4-72" value="" style="shape=partialRectangle;connectable=0;fillColor=none;top=0;left=0;bottom=0;right=0;editable=1;overflow=hidden;" vertex="1" parent="371_Ylf-zgcREsuYLQL4-71">
          <mxGeometry width="30" height="30" as="geometry" />
        </mxCell>
        <mxCell id="371_Ylf-zgcREsuYLQL4-73" value="" style="shape=partialRectangle;connectable=0;fillColor=none;top=0;left=0;bottom=0;right=0;align=left;spacingLeft=6;overflow=hidden;" vertex="1" parent="371_Ylf-zgcREsuYLQL4-71">
          <mxGeometry x="30" width="210" height="30" as="geometry" />
        </mxCell>
        <mxCell id="371_Ylf-zgcREsuYLQL4-74" value="" style="shape=partialRectangle;collapsible=0;dropTarget=0;pointerEvents=0;fillColor=none;top=0;left=0;bottom=0;right=0;points=[[0,0.5],[1,0.5]];portConstraint=eastwest;" vertex="1" parent="371_Ylf-zgcREsuYLQL4-64">
          <mxGeometry y="120" width="240" height="30" as="geometry" />
        </mxCell>
        <mxCell id="371_Ylf-zgcREsuYLQL4-75" value="" style="shape=partialRectangle;connectable=0;fillColor=none;top=0;left=0;bottom=0;right=0;editable=1;overflow=hidden;" vertex="1" parent="371_Ylf-zgcREsuYLQL4-74">
          <mxGeometry width="30" height="30" as="geometry" />
        </mxCell>
        <mxCell id="371_Ylf-zgcREsuYLQL4-76" value="" style="shape=partialRectangle;connectable=0;fillColor=none;top=0;left=0;bottom=0;right=0;align=left;spacingLeft=6;overflow=hidden;" vertex="1" parent="371_Ylf-zgcREsuYLQL4-74">
          <mxGeometry x="30" width="210" height="30" as="geometry" />
        </mxCell>
      </root>
    </mxGraphModel>
  </diagram>
</mxfile>
